# xmcd
#
# Track frame offsets: 
#        150
#        29102
#        91617
#        130147
#        148127
#        185070
#        212250
#        246278
#        263207
#        296695
#
# Disc length: 4498 seconds
#
# Revision: 0
# Processed by: cddbd v1.5.2PL0 Copyright (c) Steve Scherf et al.
# Submitted via: ExactAudioCopy v1.0b1
#
DISCID=9811900a
DTITLE=Vassili Nebolsin, Bolshoi Theater Orchestra - Tchaikovsky editi
DTITLE=on vol.50 - Mazeppa [CD 2 of 2)
DYEAR=1952
DGENRE=Opera
TTITLE0=Mazeppa, opera   Mazeppa's Arioso: O Maria, Maria!  TH 007 
TTITLE1=Mazeppa, opera   Mazeppa's Scene with Maria: My Dearest Love  
TTITLE1=TH 007 
TTITLE2=Mazeppa, opera   Scene between Maria and her Mother: How the s
TTITLE2=tars twinkle in the sky  TH 007
TTITLE3=Mazeppa, opera   Crowd Scene: Will it be soon?  TH 007
TTITLE4=Mazeppa, opera   Finale: Hey ho, fiddle-de-dee  TH 007
TTITLE5=Mazeppa, opera   The Battle of Poltava (Symphonic sketch)  TH 
TTITLE5=007
TTITLE6=Mazeppa, opera   Scene and Andrey's Aria: In bloody battle, on
TTITLE6=the field of honor  TH 007
TTITLE7=Mazeppa, opera   Scene and Duet: I hear in the distance the cl
TTITLE7=atter of horses' hooves  TH 007
TTITLE8=Mazeppa, opera   Appearance of the demented Maria: Unhappy Man
TTITLE8=! God knows  TH 007
TTITLE9=Mazeppa, opera   Finale: The old man's gone, how my heart beat
TTITLE9=s  TH 007
EXTD=
EXTT0=
EXTT1=
EXTT2=
EXTT3=
EXTT4=
EXTT5=
EXTT6=
EXTT7=
EXTT8=
EXTT9=
PLAYORDER=
